<?xml version="1.0" encoding="iso-8859-1"?>
<!-- Generator: Adobe Illustrator 23.1.1, SVG Export Plug-In . SVG Version: 6.00 Build 0)  -->
<svg version="1.1" id="_x31_-outline-expand" xmlns="http://www.w3.org/2000/svg" xmlns:xlink="http://www.w3.org/1999/xlink"
	 x="0px" y="0px" viewBox="0 0 64 64" style="enable-background:new 0 0 64 64;" xml:space="preserve">
<path style="fill:#42A5B2;" d="M62,41H2v17c0,2.209,1.791,4,4,4h52c2.209,0,4-1.791,4-4V41z"/>
<polygon style="fill:#62C4C3;" points="52,21 12,21 2,41 62,41 "/>
<path style="fill:#3A4249;" d="M17,27c-1.104,0-2,0.896-2,2v2c0,1.104,0.896,2,2,2h30c1.104,0,2-0.896,2-2v-2c0-1.104-0.896-2-2-2
	H17z"/>
<path style="fill:#F2DAAE;" d="M19,33V2h12.586C32.491,2,33.36,2.359,34,3c0.64,0.641,1.509,1,2.414,1H45v29H19z"/>
<path style="fill:#EFBC2E;" d="M40,51c0,2.762-3.582,5-8,5c-4.418,0-8-2.238-8-5c0-2.762,3.582-5,8-5C36.418,46,40,48.238,40,51
	L40,51z"/>
<rect x="57" y="44" style="fill:#3A4249;" width="2" height="2"/>
<rect x="53" y="44" style="fill:#3A4249;" width="2" height="2"/>
<rect x="49" y="44" style="fill:#3A4249;" width="2" height="2"/>
<path style="fill:#E0C494;" d="M45,18.659c-4.842,6.004-15.648,10.278-26,11.164V33h26V18.659z"/>
</svg>
