<svg xmlns="http://www.w3.org/2000/svg" width="15" height="20.5" viewBox="0 0 15 20.5"><title>Untitled-4</title><path d="M7.505,13.25a2.9706,2.9706,0,0,0,3-2.97V3.26a3,3,0,1,0-6,0v7.02A2.9706,2.9706,0,0,0,7.505,13.25Z"/><path d="M6.505,16.33h2v3.92h-2Z"/><path d="M2.555,15.12a6.7041,6.7041,0,0,1-2.05-4.87h2a4.5887,4.5887,0,0,0,1.47,3.38v.32l-1.15,1.18Z"/><path d="M7.505,15.18a4.8394,4.8394,0,0,1-3.54-1.55l-1.41,1.49a6.7513,6.7513,0,0,0,4.95,2.13,6.8563,6.8563,0,0,0,6.99-7h-1.99A4.8443,4.8443,0,0,1,7.505,15.18Z"/></svg>